<?xml version="1.0" encoding="UTF-8" standalone="no"?>
<!DOCTYPE svg PUBLIC "-//W3C//DTD SVG 1.1//EN" "http://www.w3.org/Graphics/SVG/1.1/DTD/svg11.dtd">
<svg xmlns="http://www.w3.org/2000/svg" xmlns:xlink="http://www.w3.org/1999/xlink" version="1.1" width="612pt" height="792pt" viewBox="0 0 612 792">
<g enable-background="new">
<clipPath id="cp0">
<path d="M 0 0 L 612 0 L 612 792 L 0 792 Z " fill-rule="evenodd"/>
</clipPath>
<g clip-path="url(#cp0)">
<path transform="matrix(.75,0,0,.75,0,0)" d="M 0 0 L 816 0 L 816 1056 L 0 1056 Z " fill="#ffffff"/>
<path transform="matrix(.75,0,0,.75,0,0)" d="M 0 0 L 816 0 L 816 1056 L 0 1056 Z " fill="#ffffff"/>
<path transform="matrix(.75,0,0,.75,0,0)" d="M 0 0 L 816 0 L 816 1056 L 0 1056 Z " fill="#ffffff"/>
<path transform="matrix(.75,0,0,.75,0,0)" d="M 0 0 L 816 0 L 816 1055 L 0 1055 Z " fill="#ffffff"/>
</g>
<clipPath id="cp1">
<path d="M 0 0 L 612 0 L 612 791.25 L 0 791.25 Z " fill-rule="evenodd"/>
</clipPath>
<g clip-path="url(#cp1)">
<text fill="#666666" xml:space="preserve" transform="matrix(.75 0 0 .75 0 0)" font-size="14.66" font-family="DroidSerif"><tspan y="34" x="96">&#x00a0;</tspan></text>
</g>
<clipPath id="cp2">
<path d="M 0 0 L 612 0 L 612 791.25 L 0 791.25 Z " fill-rule="evenodd"/>
</clipPath>
<g clip-path="url(#cp2)">
<text fill="#85200c" xml:space="preserve" transform="matrix(.75 0 0 .75 0 0)" font-size="49.33" font-family="Oswald"><tspan y="157" x="273 298.40397 314.23829 325.53443 345.80827 367.51264 382.7057 394.0018 429.96199 450.9264 466.76075 487.9225 506.37117 528.32217 549.2866 571.2869">Cricut Workshops</tspan></text>
</g>
<clipPath id="cp3">
<path d="M 0 0 L 612 0 L 612 791.25 L 0 791.25 Z " fill-rule="evenodd"/>
</clipPath>
<g clip-path="url(#cp3)">
<text fill="#85200c" xml:space="preserve" transform="matrix(.75 0 0 .75 0 0)" font-size="49.33" font-family="Oswald"><tspan y="157" x="589.7344">&#x00a0;</tspan></text>
</g>
<clipPath id="cp4">
<path d="M 0 0 L 612 0 L 612 791.25 L 0 791.25 Z " fill-rule="evenodd"/>
</clipPath>
<g clip-path="url(#cp4)">
<text fill="#b45f06" xml:space="preserve" transform="matrix(.75 0 0 .75 0 0)" font-size="26.66" font-family="Oswald" font-weight="bold"><tspan y="208" x="371 389.76594 402.45426 412.66358 425.13865 438.7066 445.53059 455.89985 469.7877 479.22398">March 18th</tspan></text>
</g>
<clipPath id="cp5">
<path d="M 0 0 L 612 0 L 612 791.25 L 0 791.25 Z " fill-rule="evenodd"/>
</clipPath>
<g clip-path="url(#cp5)">
<text fill="#b45f06" xml:space="preserve" transform="matrix(.75 0 0 .75 0 0)" font-size="26.66" font-family="Oswald" font-weight="bold"><tspan y="208" x="492.78126">&#x00a0;</tspan></text>
</g>
<clipPath id="cp6">
<path d="M 0 0 L 612 0 L 612 791.25 L 0 791.25 Z " fill-rule="evenodd"/>
</clipPath>
<g clip-path="url(#cp6)">
<text fill="#b45f06" xml:space="preserve" transform="matrix(.75 0 0 .75 0 0)" font-size="26.66" font-family="Oswald" font-weight="bold"><tspan y="208" x="499.59376">&#x00a0;</tspan></text>
</g>
<clipPath id="cp7">
<path d="M 0 0 L 612 0 L 612 791.25 L 0 791.25 Z " fill-rule="evenodd"/>
</clipPath>
<g clip-path="url(#cp7)">
<path transform="matrix(.75,0,0,.75,0,0)" d="M 371 210 L 493 210 L 493 212 L 371 212 Z " fill="#b45f06"/>
</g>
<clipPath id="cp8">
<path d="M 0 0 L 612 0 L 612 791.25 L 0 791.25 Z " fill-rule="evenodd"/>
</clipPath>
<g clip-path="url(#cp8)">
<path transform="matrix(.75,0,0,.75,0,0)" d="M 96 227 L 174 227 L 174 251 L 96 251 Z " fill="#00ffff"/>
</g>
<clipPath id="cp9">
<path d="M 0 0 L 612 0 L 612 791.25 L 0 791.25 Z " fill-rule="evenodd"/>
</clipPath>
<g clip-path="url(#cp9)">
<text fill="#666666" xml:space="preserve" transform="matrix(.75 0 0 .75 0 0)" font-size="20" font-family="DroidSerif"><tspan y="247" x="96 108.08 120.78 130.2 142.48 154.01999 163.04">Purpose</tspan></text>
</g>
<clipPath id="cp10">
<path d="M 0 0 L 612 0 L 612 791.25 L 0 791.25 Z " fill-rule="evenodd"/>
</clipPath>
<g clip-path="url(#cp10)">
<text fill="#666666" xml:space="preserve" transform="matrix(.75 0 0 .75 0 0)" font-size="20" font-family="DroidSerif"><tspan y="247" x="173.73438">&#x00a0;</tspan></text>
</g>
<clipPath id="cp11">
<path d="M 0 0 L 612 0 L 612 791.25 L 0 791.25 Z " fill-rule="evenodd"/>
</clipPath>
<g clip-path="url(#cp11)">
<text fill="#666666" xml:space="preserve" transform="matrix(.75 0 0 .75 0 0)" font-size="20" font-family="DroidSerif"><tspan y="292" x="96 116.94 127.64 133.84 143.68 155.22 174.12 184.81999 190.01999 197.05998 208.59998 213.79998 226.07997 235.49997 241.89997 251.73996 264.43998 271.47999 276.68 297.62 309.16 318.58003 330.28004 339.30003 352.00004 363.54005 375.82005 384.84004 390.04005 402.74006 414.28007 423.30006 430.34007 441.04008 453.32008 458.52009 470.80009 482.10008 487.30009 494.3401 507.0401 517.7401 522.9401 529.34017 548.10018 559.36019 571.0602 581.7602 586.9602 594.30026 607.20028 620.1003 631.64028 643.2203 654.4803 661.52029 667.9203 679.46029">Welcome to Cricut Workshops hosted by the iMake Innovation</tspan></text>
</g>
<clipPath id="cp12">
<path d="M 0 0 L 612 0 L 612 791.25 L 0 791.25 Z " fill-rule="evenodd"/>
</clipPath>
<g clip-path="url(#cp12)">
<text fill="#666666" xml:space="preserve" transform="matrix(.75 0 0 .75 0 0)" font-size="20" font-family="DroidSerif"><tspan y="292" x="692.3281">&#x00a0;</tspan></text>
</g>
<clipPath id="cp13">
<path d="M 0 0 L 612 0 L 612 791.25 L 0 791.25 Z " fill-rule="evenodd"/>
</clipPath>
<g clip-path="url(#cp13)">
<text fill="#666666" xml:space="preserve" transform="matrix(.75 0 0 .75 0 0)" font-size="20" font-family="DroidSerif"><tspan y="323" x="96 108.28 118.979999 131.87999 138.91999 149.61998 159.03998 164.23998 173.25998 180.29998 191.55997 198.93997 206.31998 211.51998 222.77997 229.81996 235.01996 253.77996 267.27998 279.55998 285.27998 290.47999 311.41999 322.12 327.32 338.58003 348.00004 358.70005 363.90007 374.60008 386.16007 396.00007 402.40007 409.44007 420.14009 432.42008 437.6201 444.6601 456.2001 461.40013 473.6801 484.38014 489.58015 502.28016 513.8201 522.84017 529.8801 536.28018 549.1802 559.9402 565.1402 577.4202 588.68026 598.1002 605.1402 610.3402 617.3802 634.6202 646.16018 651.36019 662.90017 670.28018 675.48019 682.52017 695.22018">Center staff at MVC. We are excited to be hosting part two of the</tspan></text>
</g>
<clipPath id="cp14">
<path d="M 0 0 L 612 0 L 612 791.25 L 0 791.25 Z " fill-rule="evenodd"/>
</clipPath>
<g clip-path="url(#cp14)">
<text fill="#666666" xml:space="preserve" transform="matrix(.75 0 0 .75 0 0)" font-size="20" font-family="DroidSerif"><tspan y="323" x="705.8906">&#x00a0;</tspan></text>
</g>
<clipPath id="cp15">
<path d="M 0 0 L 612 0 L 612 791.25 L 0 791.25 Z " fill-rule="evenodd"/>
</clipPath>
<g clip-path="url(#cp15)">
<text fill="#666666" xml:space="preserve" transform="matrix(.75 0 0 .75 0 0)" font-size="20" font-family="DroidSerif"><tspan y="354" x="96 108.28 117.7 124.1 133.94 146.64 153.68 158.87999 179.81999 191.35999 200.77999 212.47998 221.49999 234.19998 245.73999 258.02 263.22 272.24 282.94 295.22 307.92 318.62004 331.52003 341.36003 352.06004 357.26005 364.64006 374.06007 385.60008 404.50007 409.70008 428.46009 439.7201 449.1401 458.9801 471.6801 476.88014 488.06013 499.2401 506.28013 518.9801 524.1801 531.2201 542.7601 547.9601 566.7201 577.9801 589.2801 594.4801 605.6601 616.8401 623.88009 636.5801 642.30007 647.50009 668.44009">Cricut Workshop sequence from March 18th to May 27th. We</tspan></text>
</g>
<clipPath id="cp16">
<path d="M 0 0 L 612 0 L 612 791.25 L 0 791.25 Z " fill-rule="evenodd"/>
</clipPath>
<g clip-path="url(#cp16)">
<text fill="#666666" xml:space="preserve" transform="matrix(.75 0 0 .75 0 0)" font-size="20" font-family="DroidSerif"><tspan y="354" x="679.1094">&#x00a0;</tspan></text>
</g>
<clipPath id="cp17">
<path d="M 0 0 L 612 0 L 612 791.25 L 0 791.25 Z " fill-rule="evenodd"/>
</clipPath>
<g clip-path="url(#cp17)">
<text fill="#666666" xml:space="preserve" transform="matrix(.75 0 0 .75 0 0)" font-size="20" font-family="DroidSerif"><tspan y="385" x="96 113.240009 119.64001 125.840007 132.04001 137.24 149.52 160.22 165.42 175.26 184.68 195.93999 203.31999 210.35999 216.75998 229.65998 240.41997 245.61997 257.89997 267.31999 278.86 284.86 295.56 305.4 312.44 321.46 326.66 343.9 350.3 357.34 370.04 375.24003 385.08003 397.78004 404.18003 416.46003 428.74003 440.28004 451.54005 460.96006 473.24006 478.24006 483.44007 495.02006 501.42005 514.32009 525.62008 531.82009 536.82009 542.0201 551.8601 563.1201 572.5401 584.8201 593.84017 600.8801 612.4201 622.26016 633.96017 639.16018 650.42019 663.3202">will be crafting projects with chipboard, vinyl, cardstock and</tspan></text>
</g>
<clipPath id="cp18">
<path d="M 0 0 L 612 0 L 612 791.25 L 0 791.25 Z " fill-rule="evenodd"/>
</clipPath>
<g clip-path="url(#cp18)">
<text fill="#666666" xml:space="preserve" transform="matrix(.75 0 0 .75 0 0)" font-size="20" font-family="DroidSerif"><tspan y="385" x="675.5469">&#x00a0;</tspan></text>
</g>
<clipPath id="cp19">
<path d="M 0 0 L 612 0 L 612 791.25 L 0 791.25 Z " fill-rule="evenodd"/>
</clipPath>
<g clip-path="url(#cp19)">
<text fill="#666666" xml:space="preserve" transform="matrix(.75 0 0 .75 0 0)" font-size="20" font-family="DroidSerif"><tspan y="416" x="96 114.9 126.44 135.86 146.56">more!</tspan></text>
</g>
<clipPath id="cp20">
<path d="M 0 0 L 612 0 L 612 791.25 L 0 791.25 Z " fill-rule="evenodd"/>
</clipPath>
<g clip-path="url(#cp20)">
<text fill="#666666" xml:space="preserve" transform="matrix(.75 0 0 .75 0 0)" font-size="20" font-family="DroidSerif"><tspan y="416" x="153.21875">&#x00a0;</tspan></text>
</g>
<clipPath id="cp21">
<path d="M 0 0 L 612 0 L 612 791.25 L 0 791.25 Z " fill-rule="evenodd"/>
</clipPath>
<g clip-path="url(#cp21)">
<text fill="#666666" xml:space="preserve" transform="matrix(.75 0 0 .75 0 0)" font-size="20" font-family="DroidSerif"><tspan y="461" x="96 110.54 123.240009 132.66 139.06 151.95999 162.71999 167.91999 174.95998 186.49997 198.77997 210.03997 221.33997 225.73996 234.75997 239.95996 257.19996 268.73997 278.15998 289.86 298.87998 311.58 323.12 335.4 340.4 345.6 362.84 373.54 378.74003 395.98 402.38 408.58003 414.78004 419.98005 432.26005 442.96006 448.16007 458.92008 470.46009 476.86009 489.76008 500.52009 505.7201 517.2601 528.8401 539.5401 548.9601 554.1601 561.2001 573.9001 584.6001 589.8001 597.1801 608.7201 614.9201 621.1201 632.6601 649.9001 656.3001 669.20016 679.96017">During today's workshop, we will be going over the following:</tspan></text>
</g>
<clipPath id="cp22">
<path d="M 0 0 L 612 0 L 612 791.25 L 0 791.25 Z " fill-rule="evenodd"/>
</clipPath>
<g clip-path="url(#cp22)">
<text fill="#666666" xml:space="preserve" transform="matrix(.75 0 0 .75 0 0)" font-size="20" font-family="DroidSerif"><tspan y="461" x="685.6719">&#x00a0;</tspan></text>
</g>
<clipPath id="cp23">
<path d="M 0 0 L 612 0 L 612 791.25 L 0 791.25 Z " fill-rule="evenodd"/>
</clipPath>
<g clip-path="url(#cp23)">
<text fill="#666666" xml:space="preserve" transform="matrix(.75 0 0 .75 0 0)" font-size="20" font-family="ArialMT"><tspan y="506" x="120">&#x25cf;</tspan></text>
</g>
<clipPath id="cp24">
<path d="M 0 0 L 612 0 L 612 791.25 L 0 791.25 Z " fill-rule="evenodd"/>
</clipPath>
<g clip-path="url(#cp24)">
<text fill="#666666" xml:space="preserve" transform="matrix(.75 0 0 .75 0 0)" font-size="20" font-family="DroidSerif"><tspan y="506" x="144 159.86 171.4 188.64 193.84 200.87999 212.41999 217.61998 229.15998 241.43997 252.13997 261.55998 272.81999 279.86 290.56 295.76 307.6 319.14 330.68003">How to operate Zoom</tspan></text>
</g>
<clipPath id="cp25">
<path d="M 0 0 L 612 0 L 612 791.25 L 0 791.25 Z " fill-rule="evenodd"/>
</clipPath>
<g clip-path="url(#cp25)">
<text fill="#666666" xml:space="preserve" transform="matrix(.75 0 0 .75 0 0)" font-size="20" font-family="DroidSerif"><tspan y="506" x="349.5625">&#x00a0;</tspan></text>
</g>
<clipPath id="cp26">
<path d="M 0 0 L 612 0 L 612 791.25 L 0 791.25 Z " fill-rule="evenodd"/>
</clipPath>
<g clip-path="url(#cp26)">
<text fill="#666666" xml:space="preserve" transform="matrix(.75 0 0 .75 0 0)" font-size="20" font-family="ArialMT"><tspan y="537" x="120">&#x25cf;</tspan></text>
</g>
<clipPath id="cp27">
<path d="M 0 0 L 612 0 L 612 791.25 L 0 791.25 Z " fill-rule="evenodd"/>
</clipPath>
<g clip-path="url(#cp27)">
<text fill="#666666" xml:space="preserve" transform="matrix(.75 0 0 .75 0 0)" font-size="20" font-family="DroidSerif"><tspan y="537" x="144 162.76 174.01999 181.05998 191.75998 201.17998 207.57997 218.83997 225.03997 234.05997 239.25997 246.29996 258.99998 269.69999 274.9 287.18 296.6 303 312.84 325.54 332.58003 337.78004 347.62004 358.88005 371.78004 376.98005 386.82005 399.52006">Materials the Cricut can cut</tspan></text>
</g>
<clipPath id="cp28">
<path d="M 0 0 L 612 0 L 612 791.25 L 0 791.25 Z " fill-rule="evenodd"/>
</clipPath>
<g clip-path="url(#cp28)">
<text fill="#666666" xml:space="preserve" transform="matrix(.75 0 0 .75 0 0)" font-size="20" font-family="DroidSerif"><tspan y="537" x="406.54689">&#x00a0;</tspan></text>
</g>
<clipPath id="cp29">
<path d="M 0 0 L 612 0 L 612 791.25 L 0 791.25 Z " fill-rule="evenodd"/>
</clipPath>
<g clip-path="url(#cp29)">
<text fill="#666666" xml:space="preserve" transform="matrix(.75 0 0 .75 0 0)" font-size="20" font-family="ArialMT"><tspan y="568" x="120">&#x25cf;</tspan></text>
</g>
<clipPath id="cp30">
<path d="M 0 0 L 612 0 L 612 791.25 L 0 791.25 Z " fill-rule="evenodd"/>
</clipPath>
<g clip-path="url(#cp30)">
<text fill="#666666" xml:space="preserve" transform="matrix(.75 0 0 .75 0 0)" font-size="20" font-family="DroidSerif"><tspan y="568" x="144 157.5 168.76 178.18 184.57999 196.12 208.81999 217.84 223.04 235.31999 241.51999 252.77999 265.06 275.76 284.78 289.98 297.02003 308.56004 313.76005 326.46006 335.48005 346.18006 351.38008 368.62007 375.02006 382.06007 394.76008 399.96009 407.0001 419.7001 430.40013 435.60014 447.88014 457.30015 463.70014 473.54014 486.24015">Various blades to use with the Cricut</tspan></text>
</g>
<clipPath id="cp31">
<path d="M 0 0 L 612 0 L 612 791.25 L 0 791.25 Z " fill-rule="evenodd"/>
</clipPath>
<g clip-path="url(#cp31)">
<text fill="#666666" xml:space="preserve" transform="matrix(.75 0 0 .75 0 0)" font-size="20" font-family="DroidSerif"><tspan y="568" x="493.23439">&#x00a0;</tspan></text>
</g>
<clipPath id="cp32">
<path d="M 0 0 L 612 0 L 612 791.25 L 0 791.25 Z " fill-rule="evenodd"/>
</clipPath>
<g clip-path="url(#cp32)">
<text fill="#666666" xml:space="preserve" transform="matrix(.75 0 0 .75 0 0)" font-size="20" font-family="DroidSerif"><tspan y="568" x="498.42189">&#x00a0;</tspan></text>
</g>
<clipPath id="cp33">
<path d="M 0 0 L 612 0 L 612 791.25 L 0 791.25 Z " fill-rule="evenodd"/>
</clipPath>
<g clip-path="url(#cp33)">
<text fill="#666666" xml:space="preserve" transform="matrix(.75 0 0 .75 0 0)" font-size="20" font-family="ArialMT"><tspan y="599" x="120">&#x25cf;</tspan></text>
</g>
<clipPath id="cp34">
<path d="M 0 0 L 612 0 L 612 791.25 L 0 791.25 Z " fill-rule="evenodd"/>
</clipPath>
<g clip-path="url(#cp34)">
<text fill="#666666" xml:space="preserve" transform="matrix(.75 0 0 .75 0 0)" font-size="20" font-family="DroidSerif"><tspan y="599" x="144 159.86 171.4 188.64 193.84 200.87999 212.41999 217.61998 229.15998 241.43997 252.13997 261.55998 272.81999 279.86 290.56 295.76 308.04 317.46003 323.86003 333.7 346.40003 353.44004 358.64006 373.18006 383.88008 392.90007 399.30006 410.06007 422.96006 428.16007 439.04008 451.32008 462.58009 472.42008">How to operate Cricut Design Space</tspan></text>
</g>
<clipPath id="cp35">
<path d="M 0 0 L 612 0 L 612 791.25 L 0 791.25 Z " fill-rule="evenodd"/>
</clipPath>
<g clip-path="url(#cp35)">
<text fill="#666666" xml:space="preserve" transform="matrix(.75 0 0 .75 0 0)" font-size="20" font-family="DroidSerif"><tspan y="599" x="483.10939">&#x00a0;</tspan></text>
</g>
<clipPath id="cp36">
<path d="M 0 0 L 612 0 L 612 791.25 L 0 791.25 Z " fill-rule="evenodd"/>
</clipPath>
<g clip-path="url(#cp36)">
<text fill="#666666" xml:space="preserve" transform="matrix(.75 0 0 .75 0 0)" font-size="20" font-family="DroidSerif"><tspan y="644" x="96">&#x00a0;</tspan></text>
</g>
<clipPath id="cp37">
<path d="M 0 0 L 612 0 L 612 791.25 L 0 791.25 Z " fill-rule="evenodd"/>
</clipPath>
<g clip-path="url(#cp37)">
<path transform="matrix(.75,0,0,.75,0,0)" d="M 96 669 L 186 669 L 186 693 L 96 693 Z " fill="#00ffff"/>
</g>
<clipPath id="cp38">
<path d="M 0 0 L 612 0 L 612 791.25 L 0 791.25 Z " fill-rule="evenodd"/>
</clipPath>
<g clip-path="url(#cp38)">
<text fill="#666666" xml:space="preserve" transform="matrix(.75 0 0 .75 0 0)" font-size="20" font-family="DroidSerif"><tspan y="689" x="96 114.76 126.020008 133.06 143.76 153.18 159.57999 170.83998 177.03998">Materials</tspan></text>
</g>
<clipPath id="cp39">
<path d="M 0 0 L 612 0 L 612 791.25 L 0 791.25 Z " fill-rule="evenodd"/>
</clipPath>
<g clip-path="url(#cp39)">
<text fill="#666666" xml:space="preserve" transform="matrix(.75 0 0 .75 0 0)" font-size="20" font-family="DroidSerif"><tspan y="689" x="186.0625">&#x00a0;</tspan></text>
</g>
<clipPath id="cp40">
<path d="M 0 0 L 612 0 L 612 791.25 L 0 791.25 Z " fill-rule="evenodd"/>
</clipPath>
<g clip-path="url(#cp40)">
<text fill="#666666" xml:space="preserve" transform="matrix(.75 0 0 .75 0 0)" font-size="20" font-family="DroidSerif"><tspan y="734" x="96 116.94 127.64 132.84 144.09999 153.51999 164.21999 169.41999 180.11998 191.67998 201.51998 207.91997 214.95996 225.65996 237.93996 243.13996 250.17995 261.71995 266.91996 275.93995 286.63996 297.33998 302.53999 313.83998 325.37998 338.08 343.28 354.82 367.72 372.92 391.68003 402.94004 412.36006 422.20005 434.90007 440.10008 451.28007 462.46006 469.50007 482.20008 487.4001 494.7801 504.2001 515.7401 534.64016 539.84017 551.02017 556.76016 567.9401 579.1201 585.3201 596.5001 602.2401 613.4201 624.6001 629.8001 642.08016 660.98019 666.70016 671.90017 684.16018">We are excited to see you on March 18th from 2:00-4:00 pm. To</tspan></text>
</g>
<clipPath id="cp41">
<path d="M 0 0 L 612 0 L 612 791.25 L 0 791.25 Z " fill-rule="evenodd"/>
</clipPath>
<g clip-path="url(#cp41)">
<text fill="#666666" xml:space="preserve" transform="matrix(.75 0 0 .75 0 0)" font-size="20" font-family="DroidSerif"><tspan y="734" x="695.6875">&#x00a0;</tspan></text>
</g>
<clipPath id="cp42">
<path d="M 0 0 L 612 0 L 612 791.25 L 0 791.25 Z " fill-rule="evenodd"/>
</clipPath>
<g clip-path="url(#cp42)">
<text fill="#666666" xml:space="preserve" transform="matrix(.75 0 0 .75 0 0)" font-size="20" font-family="DroidSerif"><tspan y="765" x="96 108.28 117.7 128.4 140.68 151.93999 161.35999 172.05998 177.05998 182.25998 194.53998 200.73998 211.43997 222.69997 231.71997 242.41997 247.61997 260.31999 271.58 283.15998 293.86 299.06 306.1 318.80003 329.50004 334.70005 342.08006 353.62007 359.82008 366.02009 377.5601 394.80009 401.20008 414.10008 424.86009 430.0601 448.96009 460.2201 467.2601 477.9601 487.38014 493.78013 505.04014 511.24015 520.26016">prepare, please have the following materials.</tspan></text>
</g>
<clipPath id="cp43">
<path d="M 0 0 L 612 0 L 612 791.25 L 0 791.25 Z " fill-rule="evenodd"/>
</clipPath>
<g clip-path="url(#cp43)">
<text fill="#666666" xml:space="preserve" transform="matrix(.75 0 0 .75 0 0)" font-size="20" font-family="DroidSerif"><tspan y="765" x="525.96878">&#x00a0;</tspan></text>
</g>
<clipPath id="cp44">
<path d="M 0 0 L 612 0 L 612 791.25 L 0 791.25 Z " fill-rule="evenodd"/>
</clipPath>
<g clip-path="url(#cp44)">
<text fill="#666666" xml:space="preserve" transform="matrix(.75 0 0 .75 0 0)" font-size="20" font-family="DroidSerif"><tspan y="765" x="531.15628">&#x00a0;</tspan></text>
</g>
<clipPath id="cp45">
<path d="M 0 0 L 612 0 L 612 791.25 L 0 791.25 Z " fill-rule="evenodd"/>
</clipPath>
<g clip-path="url(#cp45)">
<text fill="#666666" xml:space="preserve" transform="matrix(.75 0 0 .75 0 0)" font-size="20" font-family="ArialMT"><tspan y="810" x="120">&#x25cf;</tspan></text>
</g>
<clipPath id="cp46">
<path d="M 0 0 L 612 0 L 612 791.25 L 0 791.25 Z " fill-rule="evenodd"/>
</clipPath>
<g clip-path="url(#cp46)">
<text fill="#666666" xml:space="preserve" transform="matrix(.75 0 0 .75 0 0)" font-size="20" font-family="DroidSerif"><tspan y="810" x="144 156.28 165.7 172.09999 181.93999 194.63999 201.67998 206.87998 225.63997 236.89997 246.73996 259.43998 265.83998 278.73997">Cricut Machine</tspan></text>
</g>
<clipPath id="cp47">
<path d="M 0 0 L 612 0 L 612 791.25 L 0 791.25 Z " fill-rule="evenodd"/>
</clipPath>
<g clip-path="url(#cp47)">
<text fill="#666666" xml:space="preserve" transform="matrix(.75 0 0 .75 0 0)" font-size="20" font-family="DroidSerif"><tspan y="810" x="289.42189">&#x00a0;</tspan></text>
</g>
<clipPath id="cp48">
<path d="M 0 0 L 612 0 L 612 791.25 L 0 791.25 Z " fill-rule="evenodd"/>
</clipPath>
<g clip-path="url(#cp48)">
<text fill="#666666" xml:space="preserve" transform="matrix(.75 0 0 .75 0 0)" font-size="20" font-family="ArialMT"><tspan y="841" x="120">&#x25cf;</tspan></text>
</g>
<clipPath id="cp49">
<path d="M 0 0 L 612 0 L 612 791.25 L 0 791.25 Z " fill-rule="evenodd"/>
</clipPath>
<g clip-path="url(#cp49)">
<text fill="#666666" xml:space="preserve" transform="matrix(.75 0 0 .75 0 0)" font-size="20" font-family="DroidSerif"><tspan y="841" x="144 158.28 167.7 178.4 189.09999 201.99999 207.19998 219.47998 228.89998 235.29998 245.13997 257.83998 264.87998 270.08 288.84 300.1">Green Cricut Mat</tspan></text>
</g>
<clipPath id="cp50">
<path d="M 0 0 L 612 0 L 612 791.25 L 0 791.25 Z " fill-rule="evenodd"/>
</clipPath>
<g clip-path="url(#cp50)">
<text fill="#666666" xml:space="preserve" transform="matrix(.75 0 0 .75 0 0)" font-size="20" font-family="DroidSerif"><tspan y="841" x="307.125">&#x00a0;</tspan></text>
</g>
<clipPath id="cp51">
<path d="M 0 0 L 612 0 L 612 791.25 L 0 791.25 Z " fill-rule="evenodd"/>
</clipPath>
<g clip-path="url(#cp51)">
<text fill="#666666" xml:space="preserve" transform="matrix(.75 0 0 .75 0 0)" font-size="14.66" font-family="DroidSerif"><tspan y="880" x="144">&#x00a0;</tspan></text>
</g>
<clipPath id="cp52">
<path d="M 0 0 L 612 0 L 612 791.25 L 0 791.25 Z " fill-rule="evenodd"/>
</clipPath>
<g clip-path="url(#cp52)">
<text fill="#b45f06" xml:space="preserve" transform="matrix(.75 0 0 .75 0 0)" font-size="18.66" font-family="Oswald"><tspan y="939" x="96">&#x00a0;</tspan></text>
</g>
<clipPath id="cp53">
<path d="M 0 0 L 612 0 L 612 791.25 L 0 791.25 Z " fill-rule="evenodd"/>
</clipPath>
<g clip-path="url(#cp53)">
<text fill="#666666" xml:space="preserve" transform="matrix(.75 0 0 .75 0 0)" font-size="14.66" font-family="Oswald"><tspan y="994" x="96">1</tspan></text>
</g>
<clipPath id="cp54">
<path d="M 0 0 L 612 0 L 612 791.25 L 0 791.25 Z " fill-rule="evenodd"/>
</clipPath>
<g clip-path="url(#cp54)">
<text fill="#666666" xml:space="preserve" transform="matrix(.75 0 0 .75 0 0)" font-size="14.66" font-family="Oswald"><tspan y="994" x="101.796878">&#x00a0;</tspan></text>
</g>
<clipPath id="cp55">
<path d="M 0 0 L 612 0 L 612 791.25 L 0 791.25 Z " fill-rule="evenodd"/>
</clipPath>
<g clip-path="url(#cp55)">
<text fill="#666666" xml:space="preserve" transform="matrix(.75 0 0 .75 0 0)" font-size="14.66" font-family="Oswald"><tspan y="994" x="108.5">&#x00a0;</tspan></text>
</g>
</g>
</svg>
